<svg xmlns="http://www.w3.org/2000/svg" viewBox="0 0 512 512" role="img" aria-label="Sound Mind and Body cosmic affirmation music logo">
  <defs>
    <clipPath id="circleClip">
      <circle cx="256" cy="256" r="246" />
    </clipPath>
    <radialGradient id="sunGlow" cx="50%" cy="34%" r="62%">
      <stop offset="0%" stop-color="#fffdf1" />
      <stop offset="14%" stop-color="#ffe7a8" />
      <stop offset="34%" stop-color="#f58e73" />
      <stop offset="58%" stop-color="#d95093" />
      <stop offset="78%" stop-color="#376edb" />
      <stop offset="100%" stop-color="#211650" />
    </radialGradient>
    <linearGradient id="wavePink" x1="0" y1="0" x2="1" y2="1">
      <stop offset="0%" stop-color="#fff3f6" />
      <stop offset="42%" stop-color="#ff5ca8" />
      <stop offset="100%" stop-color="#7b2cff" />
    </linearGradient>
    <linearGradient id="waveBlue" x1="0" y1="0" x2="1" y2="0">
      <stop offset="0%" stop-color="#ffffff" />
      <stop offset="48%" stop-color="#58d7ff" />
      <stop offset="100%" stop-color="#2455ff" />
    </linearGradient>
    <filter id="softGlow" x="-40%" y="-40%" width="180%" height="180%">
      <feGaussianBlur stdDeviation="5" result="blur" />
      <feMerge>
        <feMergeNode in="blur" />
        <feMergeNode in="SourceGraphic" />
      </feMerge>
    </filter>
  </defs>

  <rect width="512" height="512" fill="#fbf7f1" />
  <g clip-path="url(#circleClip)">
    <circle cx="256" cy="256" r="260" fill="url(#sunGlow)" />

    <g opacity="0.48" stroke="#ffffff" stroke-width="1.4">
      <path d="M256 18 L256 494" />
      <path d="M18 256 L494 256" />
      <path d="M86 86 L426 426" />
      <path d="M426 86 L86 426" />
      <circle cx="256" cy="178" r="88" fill="none" />
      <circle cx="256" cy="256" r="154" fill="none" />
      <circle cx="256" cy="256" r="214" fill="none" />
    </g>

    <circle cx="256" cy="178" r="34" fill="#fff9d8" opacity="0.98" filter="url(#softGlow)" />
    <circle cx="256" cy="178" r="124" fill="none" stroke="#fff7c8" stroke-width="3" opacity="0.48" />

    <path d="M-10 362 C78 306 132 342 202 390 C275 440 350 407 526 292" fill="none" stroke="url(#wavePink)" stroke-width="34" stroke-linecap="round" opacity="0.9" />
    <path d="M-8 382 C72 334 150 353 221 407 C294 462 382 416 526 320" fill="none" stroke="#ffffff" stroke-width="10" stroke-linecap="round" opacity="0.82" />
    <path d="M-8 328 C74 260 136 294 206 344 C280 397 362 366 526 258" fill="none" stroke="#ffb6d6" stroke-width="14" stroke-linecap="round" opacity="0.55" />

    <path d="M204 338 C282 282 356 332 520 228" fill="none" stroke="url(#waveBlue)" stroke-width="34" stroke-linecap="round" opacity="0.9" />
    <path d="M230 356 C300 306 376 340 516 254" fill="none" stroke="#ffffff" stroke-width="10" stroke-linecap="round" opacity="0.86" />

    <g opacity="0.82" stroke="#ffffff" stroke-width="2.1" fill="none">
      <circle cx="256" cy="286" r="57" />
      <path d="M256 224 L272 270 L320 270 L281 298 L296 344 L256 316 L216 344 L231 298 L192 270 L240 270 Z" />
      <circle cx="256" cy="286" r="30" />
      <path d="M199 286 H313 M256 229 V343 M216 246 C232 260 280 260 296 246 M216 326 C232 312 280 312 296 326" />
    </g>

    <g fill="#ffffff" opacity="0.96" font-family="Georgia, 'Times New Roman', serif" filter="url(#softGlow)">
      <text x="88" y="122" font-size="78">♫</text>
      <text x="368" y="150" font-size="82">♬</text>
      <text x="252" y="442" font-size="126">𝄞</text>
      <text x="397" y="362" font-size="118">𝄞</text>
    </g>

    <g opacity="0.88">
      <path d="M118 316 C152 285 178 276 209 283 C174 298 151 322 134 354 C130 338 124 326 118 316Z" fill="#7b2cff" opacity="0.72" />
      <path d="M334 238 C384 188 412 144 420 100 C444 152 428 210 378 260 C360 252 346 246 334 238Z" fill="#d9ffe6" opacity="0.55" />
      <path d="M356 277 C398 252 438 246 480 258 C432 272 399 296 378 331 C373 311 366 293 356 277Z" fill="#a6ffe7" opacity="0.54" />
      <path d="M112 220 C146 176 184 150 226 140 C191 174 164 213 148 258 C138 242 126 230 112 220Z" fill="#ff8fe7" opacity="0.55" />
    </g>

    <g fill="#ffffff" opacity="0.9">
      <circle cx="83" cy="317" r="12" />
      <circle cx="150" cy="386" r="8" />
      <circle cx="349" cy="334" r="9" />
      <circle cx="404" cy="293" r="14" />
      <circle cx="439" cy="92" r="16" fill="#ff6fd3" opacity="0.85" />
      <circle cx="391" cy="180" r="12" fill="#ff6fd3" opacity="0.85" />
      <circle cx="94" cy="411" r="6" fill="#6bd8ff" />
      <circle cx="190" cy="377" r="18" fill="#d9d7ff" opacity="0.86" />
    </g>

    <g stroke="#ffffff" stroke-linecap="round" opacity="0.76">
      <path d="M110 70 C92 112 86 159 101 208" stroke-width="3" fill="none" />
      <path d="M430 158 C399 183 374 216 358 258" stroke-width="3" fill="none" />
      <path d="M55 160 C74 152 86 133 91 111" stroke-width="2" fill="none" />
      <path d="M462 207 C442 215 431 232 426 253" stroke-width="2" fill="none" />
    </g>
  </g>

  <circle cx="256" cy="256" r="246" fill="none" stroke="#d7b36c" stroke-width="7" />
</svg>
