<svg xmlns="http://www.w3.org/2000/svg" viewBox="0 0 900 220" role="img" aria-labelledby="title desc">
  <title id="title">Sound Mind &amp; Body logo</title>
  <desc id="desc">A soft lotus logo with calming Sound Mind and Body text.</desc>
  <rect width="900" height="220" fill="none"/>
  <g transform="translate(20 20)">
    <path d="M82 42 C62 62 50 88 48 116" fill="none" stroke="#c49a52" stroke-width="2.4" stroke-linecap="round" opacity=".58"/>
    <path d="M226 42 C246 62 258 88 260 116" fill="none" stroke="#c49a52" stroke-width="2.4" stroke-linecap="round" opacity=".58"/>
    <path d="M154 32 C139 55 134 78 154 103 C174 78 169 55 154 32Z" fill="#f4d0ca" opacity=".94"/>
    <path d="M123 54 C103 77 96 105 112 132 C139 115 151 89 123 54Z" fill="#e8b7b1" opacity=".9"/>
    <path d="M185 54 C205 77 212 105 196 132 C169 115 157 89 185 54Z" fill="#e8b7b1" opacity=".9"/>
    <path d="M154 61 C128 91 119 128 154 160 C189 128 180 91 154 61Z" fill="#f0c5bf" opacity=".98"/>
    <path d="M92 92 C65 101 47 124 38 157 C76 155 107 143 133 118 C120 104 108 96 92 92Z" fill="#d99e99" opacity=".82"/>
    <path d="M216 92 C243 101 261 124 270 157 C232 155 201 143 175 118 C188 104 200 96 216 92Z" fill="#d99e99" opacity=".82"/>
    <path d="M116 118 C93 134 81 154 80 178 C111 175 137 160 154 135 C141 128 128 122 116 118Z" fill="#e4aea8" opacity=".88"/>
    <path d="M192 118 C215 134 227 154 228 178 C197 175 171 160 154 135 C167 128 180 122 192 118Z" fill="#e4aea8" opacity=".88"/>
    <path d="M73 151 C108 183 137 181 154 154 C171 181 200 183 235 151 C227 191 189 204 154 176 C119 204 81 191 73 151Z" fill="#a7b390" opacity=".9"/>
    <path d="M49 158 C88 185 125 187 154 164 C183 187 220 185 259 158 C230 201 187 205 154 178 C121 205 78 201 49 158Z" fill="#94a47c" opacity=".48"/>
    <path d="M82 188 C119 201 189 201 226 188" fill="none" stroke="#c49a52" stroke-width="2.5" stroke-linecap="round" opacity=".55"/>
    <path d="M108 202 C139 210 169 210 200 202" fill="none" stroke="#c49a52" stroke-width="2" stroke-linecap="round" opacity=".45"/>
  </g>
  <g transform="translate(330 74)">
    <text x="0" y="54" font-family="Georgia, 'Times New Roman', serif" font-size="56" letter-spacing="1.25" fill="#766961">Sound Mind<tspan dx="17" letter-spacing="0.15" fill="#b9944f">&amp;</tspan><tspan dx="12" letter-spacing="0.75" fill="#766961">Body</tspan></text>
    <line x1="34" y1="92" x2="218" y2="92" stroke="#c49a52" stroke-width="2" opacity=".72"/>
    <circle cx="242" cy="92" r="4" fill="#c49a52" opacity=".72"/>
    <path d="M267 82 C256 92 256 104 267 114 C278 104 278 92 267 82Z" fill="none" stroke="#c49a52" stroke-width="1.8" opacity=".85"/>
    <circle cx="292" cy="92" r="4" fill="#c49a52" opacity=".72"/>
    <line x1="316" y1="92" x2="500" y2="92" stroke="#c49a52" stroke-width="2" opacity=".72"/>
  </g>
</svg>
