<svg xmlns="http://www.w3.org/2000/svg" viewBox="0 0 512 512" role="img" aria-labelledby="brandTitle brandDesc">
  <title id="brandTitle">Sound Mind &amp; Body mystical music logo</title>
  <desc id="brandDesc">A circular mystical music emblem with a moon, glowing sound waves, lotus petals, stars, and musical notes.</desc>
  <defs>
    <radialGradient id="skyGlow" cx="50%" cy="42%" r="67%">
      <stop offset="0%" stop-color="#fff3d8"/>
      <stop offset="34%" stop-color="#e9c7c6"/>
      <stop offset="66%" stop-color="#aeb790"/>
      <stop offset="100%" stop-color="#766961"/>
    </radialGradient>
    <linearGradient id="horizon" x1="0" x2="1" y1="0" y2="1">
      <stop offset="0%" stop-color="#fffaf2" stop-opacity="0.82"/>
      <stop offset="48%" stop-color="#f0c5bf" stop-opacity="0.7"/>
      <stop offset="100%" stop-color="#b9944f" stop-opacity="0.62"/>
    </linearGradient>
    <linearGradient id="petal" x1="0" x2="0" y1="0" y2="1">
      <stop offset="0%" stop-color="#fff2e3"/>
      <stop offset="58%" stop-color="#e8b7b1"/>
      <stop offset="100%" stop-color="#c98f91"/>
    </linearGradient>
    <filter id="softGlow" x="-30%" y="-30%" width="160%" height="160%">
      <feGaussianBlur stdDeviation="6" result="blur"/>
      <feMerge>
        <feMergeNode in="blur"/>
        <feMergeNode in="SourceGraphic"/>
      </feMerge>
    </filter>
    <clipPath id="circleClip">
      <circle cx="256" cy="256" r="248"/>
    </clipPath>
  </defs>

  <circle cx="256" cy="256" r="256" fill="#fbf7f1"/>
  <g clip-path="url(#circleClip)">
    <rect width="512" height="512" fill="url(#skyGlow)"/>
    <circle cx="340" cy="112" r="58" fill="#fff7df" opacity="0.88" filter="url(#softGlow)"/>
    <circle cx="360" cy="98" r="58" fill="#d9b5b7" opacity="0.78"/>

    <path d="M-16 326 C72 290 122 324 190 292 C266 256 322 294 394 266 C452 244 498 258 528 276 L528 528 L-16 528Z" fill="#fbf7f1" opacity="0.25"/>
    <path d="M-18 368 C58 330 135 356 202 324 C286 284 350 326 430 292 C480 271 512 278 536 292 L536 528 L-18 528Z" fill="url(#horizon)" opacity="0.88"/>

    <g fill="#fffaf2" opacity="0.95">
      <circle cx="92" cy="117" r="3.4"/>
      <circle cx="134" cy="77" r="2.2"/>
      <circle cx="212" cy="105" r="2.8"/>
      <circle cx="422" cy="178" r="2.6"/>
      <circle cx="388" cy="70" r="2.1"/>
      <path d="M103 194 l5 11 11 5 -11 5 -5 11 -5-11 -11-5 11-5Z"/>
      <path d="M429 98 l4 8 8 4 -8 4 -4 8 -4-8 -8-4 8-4Z"/>
    </g>

    <g fill="none" stroke-linecap="round" opacity="0.82">
      <path d="M84 267 C142 223 199 223 256 267 C313 311 370 311 428 267" stroke="#fffaf2" stroke-width="11" opacity="0.55"/>
      <path d="M74 294 C136 250 197 250 256 294 C315 338 376 338 438 294" stroke="#b9944f" stroke-width="7" opacity="0.7"/>
      <path d="M107 238 C154 203 205 204 256 238 C307 272 358 273 405 238" stroke="#f7ddd5" stroke-width="5" opacity="0.95"/>
    </g>

    <g transform="translate(0 14)">
      <path d="M256 236 C229 278 226 326 256 365 C286 326 283 278 256 236Z" fill="url(#petal)"/>
      <path d="M215 260 C178 289 164 331 187 376 C230 361 255 323 215 260Z" fill="#e3aaa6" opacity="0.92"/>
      <path d="M297 260 C334 289 348 331 325 376 C282 361 257 323 297 260Z" fill="#e3aaa6" opacity="0.92"/>
      <path d="M171 318 C134 330 111 360 104 405 C154 401 193 379 226 342 C205 327 190 320 171 318Z" fill="#c98f91" opacity="0.83"/>
      <path d="M341 318 C378 330 401 360 408 405 C358 401 319 379 286 342 C307 327 322 320 341 318Z" fill="#c98f91" opacity="0.83"/>
      <path d="M158 394 C204 427 234 416 256 381 C278 416 308 427 354 394 C344 444 299 457 256 421 C213 457 168 444 158 394Z" fill="#8f9f78" opacity="0.94"/>
      <path d="M126 408 C180 445 226 445 256 414 C286 445 332 445 386 408 C354 466 297 471 256 435 C215 471 158 466 126 408Z" fill="#748969" opacity="0.46"/>
    </g>

    <g fill="none" stroke="#fffaf2" stroke-linecap="round" stroke-linejoin="round" opacity="0.92">
      <path d="M160 157 v78" stroke-width="8"/>
      <path d="M160 157 c34 7 53 1 76-16 v28 c-22 17-44 23-76 16" stroke-width="8"/>
      <ellipse cx="142" cy="241" rx="29" ry="20" transform="rotate(-21 142 241)" fill="#fffaf2" stroke="none" opacity="0.8"/>
      <path d="M364 202 v56" stroke-width="7"/>
      <path d="M364 202 c25 6 39 1 57-13 v24 c-17 13-33 18-57 13" stroke-width="7"/>
      <ellipse cx="349" cy="264" rx="23" ry="16" transform="rotate(-21 349 264)" fill="#fffaf2" stroke="none" opacity="0.78"/>
    </g>
  </g>

  <circle cx="256" cy="256" r="249" fill="none" stroke="#fffaf2" stroke-width="10" opacity="0.75"/>
  <circle cx="256" cy="256" r="253" fill="none" stroke="#d8b16a" stroke-width="6" opacity="0.95"/>
</svg>
